<svg xmlns="http://www.w3.org/2000/svg" width="228" height="72" viewBox="0 0 228 72" role="img" aria-labelledby="title desc">
  <title id="title">新悦航运 NEWHAPPY FREIGHT</title>
  <desc id="desc">Red crescent freight mark with Chinese and English company name.</desc>
  <rect width="228" height="72" fill="#fff"/>
  <g fill="#f01818">
    <circle cx="33" cy="19" r="4.5"/>
    <circle cx="49" cy="17" r="2.6"/>
    <circle cx="47" cy="30" r="2.2"/>
    <path d="M35.4 8.6c-12.5 4.4-21 14.8-21 26.7 0 7.4 3.4 14 8.9 19.1-9.6-3.8-16.1-11.8-16.1-21 0-12.4 11.9-22.8 28.2-24.8Z"/>
    <path d="M20 46.2c8.5 4.2 18 4.5 28.6.8-7 6.8-16.2 9.1-27.5 6.8-5.1-1-9.1-2.7-12.1-5.2 3.6.3 7.2-.5 11-2.4Z"/>
    <path d="M6.5 58.7c13.6 3.9 28.5 3.2 44.7-2.1-9.9 9.1-23.9 11.5-42.1 7.1-3-.7-5.5-1.6-7.6-2.8 1.6-.2 3.3-.9 5-2.2Z"/>
    <path d="M36.6 39c-5.5 2.7-11.3 3.4-17.4 2.1 6.6-3.6 12.8-8.2 18.5-13.9 2.3 4.5 1.9 8.4-1.1 11.8Z"/>
  </g>
  <text x="69" y="34" fill="#333" font-family="'Microsoft YaHei', 'PingFang SC', 'Noto Sans CJK SC', Arial, sans-serif" font-size="28" font-weight="700" letter-spacing="1">新悦航运</text>
  <text x="70" y="55" fill="#555" font-family="Arial, Helvetica, sans-serif" font-size="13" font-weight="700" letter-spacing=".3">NEWHAPPY FREIGHT</text>
</svg>
