<svg xmlns="http://www.w3.org/2000/svg" width="220" height="62" viewBox="0 0 220 62" role="img" aria-labelledby="title desc">
  <title id="title">&#x65B0;&#x60A6;&#x822A;&#x8FD0; NEWHAPPY FREIGHT</title>
  <desc id="desc">Newhappy Freight horizontal logo with red crescent mark.</desc>
  <rect width="220" height="62" fill="#fff"/>
  <g fill="#f01818">
    <circle cx="29.5" cy="14" r="4.3"/>
    <circle cx="45.2" cy="12.5" r="2.5"/>
    <circle cx="42.7" cy="25.7" r="2.1"/>
    <path d="M31.8 5.8C19.5 9.8 11.2 20 11.2 31.4c0 6.8 3 13 8 17.7C10.5 45.6 4.5 38.2 4.5 29.5 4.5 17.9 15.8 8 31.8 5.8Z"/>
    <path d="M18 41.6c8 3.8 17 4 27.2.5-6.8 6.2-15.4 8.2-25.9 6.2-4.7-.9-8.5-2.5-11.4-4.7 3.4.3 6.8-.4 10.1-2Z"/>
    <path d="M4.8 53.8c13.1 3.5 27.3 2.8 42.4-2.1-9.2 8.2-22.5 10.4-39.7 6.4-2.8-.6-5.2-1.5-7.1-2.5 1.4-.2 2.9-.8 4.4-1.8Z"/>
    <path d="M33.5 34.9c-5.2 2.5-10.7 3.1-16.4 1.9 6.2-3.4 12-7.7 17.4-13 2.1 4.1 1.8 7.8-1 11.1Z"/>
  </g>
  <text x="61" y="31" fill="#333" font-family="'Microsoft YaHei','PingFang SC','Noto Sans CJK SC',Arial,sans-serif" font-size="28" font-weight="700">&#x65B0;&#x60A6;&#x822A;&#x8FD0;</text>
  <text x="62" y="49" fill="#4b4b4b" font-family="Arial,Helvetica,sans-serif" font-size="12.5" font-weight="700" letter-spacing=".2">NEWHAPPY FREIGHT</text>
</svg>
